0
SECTION
2
HEADER
9
$INSUNITS
70
4
9
$ACADVER
1
AC1014
9
$HANDSEED
5
FFFF
0
ENDSEC
0
SECTION
2
TABLES
0
TABLE
2
VPORT
5
8
100
AcDbSymbolTable
0
ENDTAB
0
TABLE
2
LTYPE
5
5
100
AcDbSymbolTable
0
LTYPE
5
14
100
AcDbSymbolTableRecord
100
AcDbLinetypeTableRecord
2
BYBLOCK
70
0
0
LTYPE
5
15
100
AcDbSymbolTableRecord
100
AcDbLinetypeTableRecord
2
BYLAYER
70
0
0
ENDTAB
0
TABLE
2
LAYER
5
2
100
AcDbSymbolTable
70
2
0
LAYER
5
50
100
AcDbSymbolTableRecord
100
AcDbLayerTableRecord
2
0
70
0
6
CONTINUOUS
0
ENDTAB
0
TABLE
2
STYLE
5
3
100
AcDbSymbolTable
70
1
0
STYLE
5
11
100
AcDbSymbolTableRecord
100
AcDbTextStyleTableRecord
2
STANDARD
70
0
0
ENDTAB
0
TABLE
2
VIEW
5
6
100
AcDbSymbolTable
70
0
0
ENDTAB
0
TABLE
2
UCS
5
7
100
AcDbSymbolTable
70
0
0
ENDTAB
0
TABLE
2
APPID
5
9
100
AcDbSymbolTable
70
2
0
APPID
5
12
100
AcDbSymbolTableRecord
100
AcDbRegAppTableRecord
2
ACAD
70
0
0
ENDTAB
0
TABLE
2
DIMSTYLE
5
A
100
AcDbSymbolTable
70
1
0
ENDTAB
0
TABLE
2
BLOCK_RECORD
5
1
100
AcDbSymbolTable
70
1
0
BLOCK_RECORD
5
1F
100
AcDbSymbolTableRecord
100
AcDbBlockTableRecord
2
*MODEL_SPACE
0
BLOCK_RECORD
5
1B
100
AcDbSymbolTableRecord
100
AcDbBlockTableRecord
2
*PAPER_SPACE
0
ENDTAB
0
ENDSEC
0
SECTION
2
BLOCKS
0
BLOCK
5
20
100
AcDbEntity
100
AcDbBlockBegin
2
*MODEL_SPACE
0
ENDBLK
5
21
100
AcDbEntity
100
AcDbBlockEnd
0
BLOCK
5
1C
100
AcDbEntity
100
AcDbBlockBegin
2
*PAPER_SPACE
0
ENDBLK
5
1D
100
AcDbEntity
100
AcDbBlockEnd
0
ENDSEC
0
SECTION
2
ENTITIES
0
CIRCLE
5
100
100
AcDbEntity
8
0
100
AcDbCircle
10
6.7499999999953975
20
25.645898033750658
30
0
40
1.2645
210
-0
220
0
230
1
0
LWPOLYLINE
5
101
100
AcDbEntity
8
0
100
AcDbPolyline
90
4
70
1
43
0.0
10
6.7499999999985194
20
40.595898034705669
42
-0.99999999999999989
10
6.7499999999904663
20
43.695898032782949
10
11.749999999990479
20
43.695898032795775
42
-0.99999999999999989
10
11.749999999998499
20
40.5958980347188
0
CIRCLE
5
102
100
AcDbEntity
8
0
100
AcDbCircle
10
6.7499999999940785
20
49.645898033744302
30
0
40
1.2645
210
-0
220
0
230
1
0
LWPOLYLINE
5
103
100
AcDbEntity
8
0
100
AcDbPolyline
90
4
70
1
43
0.0
10
6.7499999999958913
20
16.5958980337358
42
-0.99999999999999989
10
6.749999999995727
20
19.695898033765516
10
11.749999999995692
20
19.695898033765548
42
-0.99999999999999989
10
11.749999999995929
20
16.595898033736095
0
CIRCLE
5
104
100
AcDbEntity
8
0
100
AcDbCircle
10
6.250000000000016
20
6.1458980337503322
30
0
40
1.2645
210
0
220
-0
230
1
0
CIRCLE
5
105
100
AcDbEntity
8
0
100
AcDbCircle
10
11.750000000000018
20
8.645898033750326
30
0
40
1.2645
210
0
220
-0
230
1
0
CIRCLE
5
106
100
AcDbEntity
8
0
100
AcDbCircle
10
11.750000000000027
20
-15.354101966261098
30
0
40
1.2645
210
0
220
-0
230
1
0
CIRCLE
5
107
100
AcDbEntity
8
0
100
AcDbCircle
10
6.2500000000000195
20
-4.8541019662496687
30
0
40
1.2645
210
0
220
-0
230
1
0
CIRCLE
5
108
100
AcDbEntity
8
0
100
AcDbCircle
10
-11.850000000000012
20
8.6458980337503188
30
0
40
1.2645
210
3.4232706846718345e-48
220
-6.1629758220391547e-33
230
1
0
CIRCLE
5
109
100
AcDbEntity
8
0
100
AcDbCircle
10
-11.849999999999998
20
-15.354101966249797
30
0
40
1.2645
210
3.4232706846718345e-48
220
-6.1629758220391547e-33
230
1
0
CIRCLE
5
110
100
AcDbEntity
8
0
100
AcDbCircle
10
-6.3500000000000112
20
6.1458980337503313
30
0
40
1.2645
210
3.4232706846718345e-48
220
-6.1629758220391547e-33
230
1
0
CIRCLE
5
111
100
AcDbEntity
8
0
100
AcDbCircle
10
-6.3500000000000059
20
-4.8541019662496696
30
0
40
1.2645
210
3.4232706846718345e-48
220
-6.1629758220391547e-33
230
1
0
LWPOLYLINE
5
112
100
AcDbEntity
8
0
100
AcDbPolyline
90
4
70
1
43
0.0
10
-6.8499999999913879
20
43.695898032781315
42
-0.99999999999999989
10
-6.8500000000005041
20
40.595898034707218
10
-11.850000000000527
20
40.595898034718559
42
-0.99999999999999989
10
-11.849999999991409
20
43.695898032795519
0
CIRCLE
5
113
100
AcDbEntity
8
0
100
AcDbCircle
10
-6.8499999999958678
20
49.64589803374426
30
0
40
1.2645
210
0
220
-0
230
1
0
LWPOLYLINE
5
114
100
AcDbEntity
8
0
100
AcDbPolyline
90
4
70
1
43
0.0
10
-6.8499999999962924
20
19.695898033765321
42
-0.99999999999999989
10
-6.8499999999961991
20
16.595898033735693
10
-11.849999999996282
20
16.595898033735669
42
-0.99999999999999989
10
-11.849999999996205
20
19.695898033765467
0
CIRCLE
5
115
100
AcDbEntity
8
0
100
AcDbCircle
10
-8.5185328010029497
20
31.870898033750429
30
0
40
1.2645
210
0
220
-0
230
1
0
LWPOLYLINE
5
116
100
AcDbEntity
8
0
100
AcDbPolyline
90
50
70
1
43
0.0
10
3.2499999999981655
20
18.145898033751685
10
3.249999999998165
20
18.14999955296517
10
0.99095334944023983
20
18.14999955296517
10
0.99095334944024005
20
8.6499995529651983
10
3.250002403209455
20
8.6499995529651947
42
-0.41387037331231658
10
6.7500000000000586
20
12.145898033750333
10
11.749999999999929
20
12.145898033750328
42
-0.86468904129677404
10
12.750000000000012
20
5.2917960675006404
42
0.33167926656827718
10
10.25000000000002
20
1.9376941012509519
10
10.250000000000018
20
-8.6458980337504219
42
0.33167926656853314
10
12.749999999689264
20
-11.999999999926512
42
-1.0000008539942198
10
10.749994271547314
20
-18.708202224603081
42
-0.33167910858643379
10
3.2500000000000173
20
-8.6458980337504237
10
3.2500000000000151
20
6.649999552965193
10
-3.3500000000000107
20
6.6499995529651983
10
-3.3500000000000152
20
-8.6458980337504183
42
-0.33167926656831487
10
-10.849999999999994
20
-18.708203932499469
42
-0.99999999999999989
10
-12.850000000000001
20
-12.000000000000124
42
0.33167926656827695
10
-10.35
20
-8.6458980337504254
10
-10.350000000000009
20
1.9376941012509508
42
0.33167926656827657
10
-12.850000000000072
20
5.2917960675004156
42
-0.86468904129675406
10
-11.850000000000083
20
12.145898033750546
10
-6.8500000000000707
20
12.145898033750395
42
-0.41387037331231702
10
-3.3500024032093902
20
8.6499995529652001
10
-1.0090466505597708
20
8.6499995529651983
10
-1.0090466505597706
20
18.14999955296517
10
-3.349999999998603
20
18.149999552965173
10
-3.3499999999960717
20
18.145898033751791
42
-0.41421356237352897
10
-6.8500000000001453
20
14.645898033750333
10
-11.849999999996289
20
14.645898033750074
42
-0.86468904122425194
10
-12.85000000055298
20
21.499999999834781
42
0.33167926661476177
10
-10.349999999993804
20
24.854101966254358
10
-10.349999999993795
20
27.334880231086409
42
0.17808738406211405
10
-11.184266400498375
20
29.60288913241844
42
-0.32936096694430561
10
-11.469473945326863
20
33.752903974956837
42
0.47155125706307749
10
-13.135207544830889
20
38.890403974941137
42
-0.71478384472073708
10
-12.828260359549224
20
45.506404940343153
42
0.36475502425639622
10
-10.328260359689841
20
49.256404939883751
42
-1.0573716715551373
10
-3.3499999999982299
20
49.645898033744224
10
-3.3499999999985786
20
20.14999955296517
10
3.2499999999980544
20
20.14999955296517
10
3.2500000000065175
20
49.645898033744125
42
-1.0573716715540484
10
10.228260359678853
20
49.256404939892214
42
0.36475502422522432
10
12.728260359551843
20
45.506404940349071
42
-0.74787721031386178
10
12.750000000000309
20
38.791796067459799
42
0.33167926656893476
10
10.249999999992497
20
35.437694101207612
10
10.249999999993083
20
24.854101966254547
42
0.33167927901001065
10
12.750000150370006
20
21.49999995516788
42
-0.86468902170826867
10
11.749999999996
20
14.645898033750537
10
6.7499999999998632
20
14.645898033753015
42
-0.41421356237352003
0
ENDSEC
0
SECTION
2
OBJECTS
0
DICTIONARY
5
C
100
AcDbDictionary
3
ACAD_GROUP
350
D
3
ACAD_MLINESTYLE
350
17
0
DICTIONARY
5
D
100
AcDbDictionary
0
DICTIONARY
5
1A
330
C
100
AcDbDictionary
0
DICTIONARY
5
17
100
AcDbDictionary
0
ENDSEC
0
EOF
